<?xml version="1.0" encoding="UTF-8"?>
<svg width="170px" height="26px" viewBox="0 0 170 26" version="1.1" xmlns="http://www.w3.org/2000/svg" xmlns:xlink="http://www.w3.org/1999/xlink">
    <title>Group 4</title>
    <defs>
        <polygon id="path-1" points="0 0.0618014763 13.9274532 0.0618014763 13.9274532 16.3928571 0 16.3928571"></polygon>
        <polygon id="path-3" points="0.0583835443 0.0408950347 10.8987446 0.0408950347 10.8987446 24 0.0583835443 24"></polygon>
    </defs>
    <g id="🎨-Color-Palette" stroke="none" stroke-width="1" fill="none" fill-rule="evenodd">
        <g id="Group-3" transform="translate(-68.000000, -38.000000)">
            <g id="Group-4" transform="translate(68.000000, 38.000000)">
                <g id="Group-15-Copy-2" transform="translate(53.000000, 0.000000)">
                    <g id="Group-6" transform="translate(0.000000, 9.000000)">
                        <mask id="mask-2" fill="white">
                            <use xlink:href="#path-1"></use>
                        </mask>
                        <g id="Clip-5"></g>
                        <path d="M-1.4893617e-05,5.99372318 C0.100070213,5.85028568 0.251240426,5.71900151 0.292346809,5.56171487 C0.742878723,3.83410557 1.42455957,2.22124627 2.79149574,0.942744735 C4.07681489,-0.259586546 5.77349574,-0.181155203 7.11228298,0.873922999 C8.6132617,2.05661111 9.53845319,3.63301044 10.3407723,5.25632725 C11.1137511,6.82014929 11.7646021,8.44487928 12.3594532,10.0786536 C12.7810915,11.2367524 13.0384532,12.4502478 13.335134,13.6465024 C13.5604745,14.5557407 13.7320489,15.4768497 13.9274532,16.3928713 L13.0384532,16.3928713 C12.8905596,16.3022866 12.754283,16.1797641 12.5926872,16.1262047 C11.4262191,15.7401247 10.1843894,15.4976234 9.09745319,14.9678232 C5.46251702,13.1964054 3.16741064,10.4004341 2.3499,6.56478815 C2.23075106,6.00573519 1.84560213,5.90031216 1.31702766,6.01831247 C0.880942553,6.11568039 0.439197872,6.19029615 -1.4893617e-05,6.27480416 L-1.4893617e-05,5.99372318 Z" id="Fill-4" fill="#09090B" mask="url(#mask-2)"></path>
                    </g>
                    <g id="Group-9" transform="translate(16.000000, 1.000000)">
                        <mask id="mask-4" fill="white">
                            <use xlink:href="#path-3"></use>
                        </mask>
                        <g id="Clip-8"></g>
                        <path d="M0.0583835443,24.0000142 C0.518573418,23.0280852 0.957181013,22.0447953 1.44257342,21.0862154 C2.8133962,18.3797538 4.23211772,15.6978604 5.57690253,12.9780497 C6.61967468,10.869032 7.6533962,8.74936331 8.55483924,6.57558817 C9.34266203,4.6751858 9.09356076,2.40910296 7.52626962,1.06751716 C7.37407975,0.937292308 7.21075063,0.820416568 6.99256076,0.650570414 C7.0800038,0.549031953 7.15756076,0.370097041 7.26978861,0.343540828 C7.81811772,0.213884024 8.37299114,0.0911857988 8.93190253,0.0417656805 C9.10177595,0.026712426 9.37872532,0.209623669 9.46004177,0.37620355 C10.1939785,1.87670059 10.5913709,3.44309112 10.1086241,5.11329231 C9.84420633,6.02784852 10.0069785,6.89014438 10.3477,7.72432189 C10.9268013,9.14316213 10.916219,10.6270438 10.8889278,12.1163219 C10.8223709,15.753387 9.2521557,18.6799669 6.64947215,21.0375053 C5.38294051,22.1848189 3.89919367,23.0407243 2.21076329,23.457245 C1.66688987,23.5913041 1.14473797,23.8165349 0.612421519,24.0000142 L0.0583835443,24.0000142 Z" id="Fill-7" fill="#09090B" mask="url(#mask-4)"></path>
                    </g>
                    <path d="M4,6.21212052 C5.82826067,3.28929761 8.26124505,1.18550432 11.6764123,0.383462828 C15.1103187,-0.422897685 18.3562704,0.00641262562 21.4910555,2.01504356 C21.003416,2.27893551 20.5581861,2.51979271 20.0867496,2.77475869 C21.8389266,4.24567199 22.3427691,6.40402885 21.7813003,8.63033826 C21.5548812,9.5284059 21.4183534,10.4544032 21.1372668,11.3330353 C20.6775246,12.7696844 20.2015794,14.2087809 19.6078456,15.5910104 C18.7779708,17.5233387 17.8359431,19.4057103 16.9340707,21.305502 C16.833894,21.516702 16.6825721,21.7024197 16.4902497,22 C16.0512192,20.2212847 15.7165922,18.5668132 15.2309253,16.9602828 C14.2772033,13.8055286 13.2554288,10.6635876 11.2788051,7.98133394 C10.2215249,6.54684435 8.84934308,5.43872851 7.04137137,5.40518414 C6.06989654,5.38718823 5.08898171,5.9046065 4,6.21212052" id="Fill-13" fill="#09090B"></path>
                </g>
                <path d="M4.23,23.87 L6,19.67 L14.07,19.67 L15.84,23.87 L20.04,23.87 L11.67,3.86 L8.61,3.86 L2.27373675e-13,23.87 L4.23,23.87 Z M12.93,16.49 L7.23,16.49 L10.08,9.29 L12.93,16.49 Z M27.41,24.29 C28.34,24.29 30.08,24.08 31.4,22.19 L31.4,23.87 L35.06,23.87 L35.06,2 L31.4,2 L31.4,12.56 C30.17,10.64 28.22,10.46 27.23,10.46 C23.39,10.46 20.78,13.52 20.78,17.36 C20.78,21.17 23.42,24.29 27.41,24.29 Z M28.16,21.05 C26.06,21.05 24.56,19.43 24.56,17.36 C24.56,15.29 26.06,13.7 28.16,13.7 C30.26,13.7 31.76,15.29 31.76,17.36 C31.76,19.43 30.26,21.05 28.16,21.05 Z M44.11,24.29 C45.04,24.29 46.78,24.08 48.1,22.19 L48.1,23.87 L51.76,23.87 L51.76,2 L48.1,2 L48.1,12.56 C46.87,10.64 44.92,10.46 43.93,10.46 C40.09,10.46 37.48,13.52 37.48,17.36 C37.48,21.17 40.12,24.29 44.11,24.29 Z M44.86,21.05 C42.76,21.05 41.26,19.43 41.26,17.36 C41.26,15.29 42.76,13.7 44.86,13.7 C46.96,13.7 48.46,15.29 48.46,17.36 C48.46,19.43 46.96,21.05 44.86,21.05 Z M86.86,24.29 C91.39,24.29 92.86,21.2 93.25,20.24 L89.89,19.7 C89.29,20.75 88.24,21.41 86.86,21.41 C85.45,21.41 84.64,20.72 84.25,20.18 C83.83,19.61 83.62,18.77 83.62,17.99 L93.34,17.99 L93.34,17.69 C93.34,16.28 93.16,14.24 91.78,12.59 C90.88,11.51 89.35,10.46 86.71,10.46 C85.15,10.46 83.35,10.79 81.82,12.29 C80.89,13.22 79.84,14.81 79.84,17.39 C79.84,19.43 80.44,21.11 81.88,22.46 C83.17,23.69 84.76,24.29 86.86,24.29 Z M89.89,15.65 L83.74,15.65 C84.04,13.91 85.45,13.04 86.8,13.04 C88.15,13.04 89.59,13.88 89.89,15.65 Z M99.42,23.87 L99.42,17.24 C99.42,16.49 99.45,15.56 99.99,14.72 C100.53,13.91 101.28,13.58 102.24,13.58 C102.6,13.58 103.38,13.64 103.95,14.24 C104.61,14.93 104.64,16.07 104.64,16.79 L104.64,23.87 L108.3,23.87 L108.3,15.71 C108.3,14.45 108.18,13.16 107.28,12.05 C106.26,10.79 104.58,10.46 103.44,10.46 C101.34,10.46 100.11,11.6 99.42,12.56 L99.42,10.88 L95.76,10.88 L95.76,23.87 L99.42,23.87 Z M115.04,23.87 L115.04,14 L117.56,14 L117.56,10.88 L115.04,10.88 L115.04,6.44 L111.38,6.44 L111.38,10.88 L109.94,10.88 L109.94,14 L111.38,14 L111.38,23.87 L115.04,23.87 Z M125.38,24.29 C126.97,24.29 128.89,23.87 130.09,22.82 C131.53,21.56 131.68,20 131.68,18.83 L131.68,10.88 L128.02,10.88 L128.02,18.23 C128.02,18.92 127.96,19.85 127.24,20.51 C126.79,20.9 126.07,21.17 125.38,21.17 C124.69,21.17 123.97,20.9 123.52,20.51 C122.8,19.85 122.74,18.92 122.74,18.23 L122.74,10.88 L119.08,10.88 L119.08,18.83 C119.08,20 119.23,21.56 120.67,22.82 C121.87,23.87 123.79,24.29 125.38,24.29 Z M138.42,23.87 L138.42,17.63 C138.42,16.73 138.45,15.62 139.14,14.75 C139.86,13.85 140.88,13.7 141.57,13.7 C142.32,13.7 142.8,13.85 143.28,14.18 L143.76,10.76 C143.34,10.61 142.83,10.46 142.2,10.46 C141.33,10.46 140.61,10.67 140.04,11.03 C139.77,11.18 138.99,11.72 138.42,12.83 L138.42,10.88 L134.76,10.88 L134.76,23.87 L138.42,23.87 Z M150.89,24.29 C155.42,24.29 156.89,21.2 157.28,20.24 L153.92,19.7 C153.32,20.75 152.27,21.41 150.89,21.41 C149.48,21.41 148.67,20.72 148.28,20.18 C147.86,19.61 147.65,18.77 147.65,17.99 L157.37,17.99 L157.37,17.69 C157.37,16.28 157.19,14.24 155.81,12.59 C154.91,11.51 153.38,10.46 150.74,10.46 C149.18,10.46 147.38,10.79 145.85,12.29 C144.92,13.22 143.87,14.81 143.87,17.39 C143.87,19.43 144.47,21.11 145.91,22.46 C147.2,23.69 148.79,24.29 150.89,24.29 Z M153.92,15.65 L147.77,15.65 C148.07,13.91 149.48,13.04 150.83,13.04 C152.18,13.04 153.62,13.88 153.92,15.65 Z M163.99,24.29 C165.58,24.29 166.84,23.87 167.89,22.91 C168.94,21.95 169.33,20.78 169.33,19.61 C169.33,18.77 169.06,17.99 168.67,17.45 C167.92,16.43 166.39,15.92 165.37,15.59 L164.5,15.32 C163.48,14.99 163.33,14.48 163.33,14.15 C163.33,13.52 163.87,13.1 164.74,13.1 C165.13,13.1 166,13.16 166.87,13.97 L168.67,11.84 C167.02,10.58 165.49,10.46 164.53,10.46 C163.48,10.46 162.16,10.58 161.14,11.39 C160.39,12.02 159.79,13.07 159.79,14.33 C159.79,15.38 160.18,16.19 160.78,16.82 C161.56,17.63 162.64,18.05 163.57,18.38 L164.41,18.68 C164.89,18.86 165.55,19.19 165.55,20 C165.55,20.9 164.77,21.41 163.75,21.41 C162.67,21.41 161.59,20.75 160.87,19.91 L158.95,22.13 C159.76,23 161.29,24.29 163.99,24.29 Z" id="AddVentures" fill="#09090B" fill-rule="nonzero"></path>
            </g>
        </g>
    </g>
</svg>