<?xml version="1.0" encoding="UTF-8"?>
<svg width="214px" height="41px" viewBox="0 0 214 41" version="1.1" xmlns="http://www.w3.org/2000/svg" xmlns:xlink="http://www.w3.org/1999/xlink">
    <title>AV-Logo</title>
    <g id="🎨-Color-Palette" stroke="none" stroke-width="1" fill="none" fill-rule="evenodd">
        <g id="illustration-Example" transform="translate(-49.000000, -1141.000000)" fill="#FFFFFF" fill-rule="nonzero">
            <g id="AV-Logo" transform="translate(49.000000, 1141.000000)">
                <path d="M11.1764447,15.4394026 C13.5351255,17.3873595 14.9889979,19.9837819 16.2497851,22.6574802 C17.464466,25.2331871 18.4872319,27.9092129 19.4219979,30.6001353 C20.0845723,32.5075922 20.4889979,34.5062905 20.9552106,36.4765922 C21.309317,37.9741612 21.578934,39.4912819 21.8859979,41.0000233 L20.4889979,41.0000233 C20.2565936,40.850825 20.0424447,40.6490233 19.7885085,40.5608078 C19.4219042,40.4336285 19.050563,40.3159085 18.6773793,40.2019703 L17.5551958,39.865824 C16.4332744,39.5296684 15.3208234,39.1764526 14.2959979,38.6528853 C8.58395532,35.735256 4.97735957,31.1301267 3.6927,24.8125922 C3.50546596,23.8917991 2.90023191,23.7181612 2.06961489,23.9125147 C1.3843383,24.0728853 0.690168085,24.1957819 -2.34042554e-05,24.3349716 L-2.34042554e-05,23.8720147 C0.157253191,23.6357647 0.394806383,23.4195319 0.459402128,23.1604715 C1.16738085,20.3149974 2.23859362,17.6585233 4.38663617,15.552756 C6.4064234,13.5724457 9.07263617,13.7016267 11.1764447,15.4394026 Z M40.6158405,2.06786923 C40.8938152,2.04340769 41.3470051,2.34063846 41.4800684,2.61133077 C42.6810557,5.04963846 43.3313342,7.59502308 42.5413848,10.3091 C42.1087013,11.7952538 42.3750557,13.1964846 42.9326,14.5520231 C43.8802203,16.8576385 43.8629038,19.2689462 43.8182456,21.6890231 C43.7093342,27.5992538 41.1398911,32.3549462 36.8809544,36.1859462 C34.8084481,38.0503308 32.3804987,39.4411769 29.6176127,40.1180231 C28.727638,40.3358692 27.8732076,40.7018692 27.0021443,41.0000231 L26.0955367,41.0000231 C26.8485747,39.4206385 27.5662962,37.8227923 28.3605747,36.2651 C30.6037392,31.8671 32.9252835,27.5090231 35.1258405,23.0893308 C36.8321949,19.6621769 38.5237392,16.2177154 39.9988278,12.6853308 C41.2879924,9.59717692 40.8803722,5.91479231 38.3157139,3.73471538 C38.0666759,3.5231 37.7994101,3.33317692 37.4423722,3.05717692 C37.5854608,2.89217692 37.7123722,2.60140769 37.8960177,2.55825385 C38.7932835,2.34756154 39.7012582,2.14817692 40.6158405,2.06786923 Z M35.1517592,3.29734401 C34.3390267,3.72916721 33.5969768,4.12329716 32.8112493,4.54051422 C35.7315444,6.94746325 36.5712819,10.4793199 35.6355006,14.1223717 C35.2581353,15.5919369 35.030589,17.1072052 34.5621113,18.5449668 C33.7958743,20.8958471 33.0026324,23.2507324 32.013076,25.5125624 C30.6299513,28.6745542 29.0599052,31.7547987 27.5567845,34.8635488 C27.3898233,35.2091487 27.1376202,35.5130504 26.8170829,36 C26.0853653,33.089375 25.5276537,30.382058 24.7182088,27.75319 C23.1286722,22.5908651 21.4257146,17.449507 18.1313418,13.0603646 C16.3692081,10.713018 14.0822385,8.89973756 11.0689523,8.84484677 C9.44982757,8.81539893 7.81496952,9.66208336 6,10.1652881 C9.04710112,5.38248699 13.1020751,1.93991617 18.7940205,0.627484628 C24.5171978,-0.692014394 29.9271173,0.0104933874 35.1517592,3.29734401 Z M87.06,10 L87.06,31.87 L83.4,31.87 L83.4,30.19 C82.08,32.08 80.34,32.29 79.41,32.29 C75.42,32.29 72.78,29.17 72.78,25.36 C72.78,21.52 75.39,18.46 79.23,18.46 C80.22,18.46 82.17,18.64 83.4,20.56 L83.4,20.56 L83.4,10 L87.06,10 Z M208.53,18.46 C209.49,18.46 211.02,18.58 212.67,19.84 L212.67,19.84 L210.87,21.97 C210,21.16 209.13,21.1 208.74,21.1 C207.87,21.1 207.33,21.52 207.33,22.15 C207.33,22.48 207.48,22.99 208.5,23.32 L208.5,23.32 L209.37,23.59 C210.39,23.92 211.92,24.43 212.67,25.45 C213.06,25.99 213.33,26.77 213.33,27.61 C213.33,28.78 212.94,29.95 211.89,30.91 C210.84,31.87 209.58,32.29 207.99,32.29 C205.29,32.29 203.76,31 202.95,30.13 L202.95,30.13 L204.87,27.91 C205.59,28.75 206.67,29.41 207.75,29.41 C208.77,29.41 209.55,28.9 209.55,28 C209.55,27.19 208.89,26.86 208.41,26.68 L208.41,26.68 L207.57,26.38 C206.64,26.05 205.56,25.63 204.78,24.82 C204.18,24.19 203.79,23.38 203.79,22.33 C203.79,21.07 204.39,20.02 205.14,19.39 C206.16,18.58 207.48,18.46 208.53,18.46 Z M194.74,18.46 C197.38,18.46 198.91,19.51 199.81,20.59 C201.19,22.24 201.37,24.28 201.37,25.69 L201.37,25.69 L201.37,25.99 L191.65,25.99 C191.65,26.77 191.86,27.61 192.28,28.18 C192.67,28.72 193.48,29.41 194.89,29.41 C196.27,29.41 197.32,28.75 197.92,27.7 L197.92,27.7 L201.28,28.24 C200.89,29.2 199.42,32.29 194.89,32.29 C192.79,32.29 191.2,31.69 189.91,30.46 C188.47,29.11 187.87,27.43 187.87,25.39 C187.87,22.81 188.92,21.22 189.85,20.29 C191.38,18.79 193.18,18.46 194.74,18.46 Z M166.74,18.88 L166.74,26.23 C166.74,26.92 166.8,27.85 167.52,28.51 C167.97,28.9 168.69,29.17 169.38,29.17 C170.07,29.17 170.79,28.9 171.24,28.51 C171.96,27.85 172.02,26.92 172.02,26.23 L172.02,26.23 L172.02,18.88 L175.68,18.88 L175.68,26.83 C175.68,28 175.53,29.56 174.09,30.82 C172.89,31.87 170.97,32.29 169.38,32.29 C167.79,32.29 165.87,31.87 164.67,30.82 C163.23,29.56 163.08,28 163.08,26.83 L163.08,26.83 L163.08,18.88 L166.74,18.88 Z M130.71,18.46 C133.35,18.46 134.88,19.51 135.78,20.59 C137.16,22.24 137.34,24.28 137.34,25.69 L137.34,25.69 L137.34,25.99 L127.62,25.99 C127.62,26.77 127.83,27.61 128.25,28.18 C128.64,28.72 129.45,29.41 130.86,29.41 C132.24,29.41 133.29,28.75 133.89,27.7 L133.89,27.7 L137.25,28.24 C136.86,29.2 135.39,32.29 130.86,32.29 C128.76,32.29 127.17,31.69 125.88,30.46 C124.44,29.11 123.84,27.43 123.84,25.39 C123.84,22.81 124.89,21.22 125.82,20.29 C127.35,18.79 129.15,18.46 130.71,18.46 Z M103.76,10 L103.76,31.87 L100.1,31.87 L100.1,30.19 C98.78,32.08 97.04,32.29 96.11,32.29 C92.12,32.29 89.48,29.17 89.48,25.36 C89.48,21.52 92.09,18.46 95.93,18.46 C96.92,18.46 98.87,18.64 100.1,20.56 L100.1,20.56 L100.1,10 L103.76,10 Z M63.67,11.86 L72.04,31.87 L67.84,31.87 L66.07,27.67 L58,27.67 L56.23,31.87 L52,31.87 L60.61,11.86 L63.67,11.86 Z M186.2,18.46 C186.83,18.46 187.34,18.61 187.76,18.76 L187.76,18.76 L187.28,22.18 C186.8,21.85 186.32,21.7 185.57,21.7 C184.88,21.7 183.86,21.85 183.14,22.75 C182.45,23.62 182.42,24.73 182.42,25.63 L182.42,31.87 L178.76,31.87 L178.76,18.88 L182.42,18.88 L182.42,20.83 C182.99,19.72 183.77,19.18 184.04,19.03 C184.61,18.67 185.33,18.46 186.2,18.46 Z M109.42,11.86 L114.76,25.3 L120.1,11.86 L124.36,11.86 L115.9,31.87 L113.56,31.87 L105.16,11.86 L109.42,11.86 Z M147.44,18.46 C148.58,18.46 150.26,18.79 151.28,20.05 C152.18,21.16 152.3,22.45 152.3,23.71 L152.3,23.71 L152.3,31.87 L148.64,31.87 L148.64,24.79 C148.64,24.07 148.61,22.93 147.95,22.24 C147.38,21.64 146.6,21.58 146.24,21.58 C145.28,21.58 144.53,21.91 143.99,22.72 C143.45,23.56 143.42,24.49 143.42,25.24 L143.42,31.87 L139.76,31.87 L139.76,18.88 L143.42,18.88 L143.42,20.56 C144.11,19.6 145.34,18.46 147.44,18.46 Z M159.04,14.44 L159.04,18.88 L161.56,18.88 L161.56,22 L159.04,22 L159.04,31.87 L155.38,31.87 L155.38,22 L153.94,22 L153.94,18.88 L155.38,18.88 L155.38,14.44 L159.04,14.44 Z M80.16,21.7 C78.06,21.7 76.56,23.29 76.56,25.36 C76.56,27.43 78.06,29.05 80.16,29.05 C82.26,29.05 83.76,27.43 83.76,25.36 C83.76,23.29 82.26,21.7 80.16,21.7 Z M96.86,21.7 C94.76,21.7 93.26,23.29 93.26,25.36 C93.26,27.43 94.76,29.05 96.86,29.05 C98.96,29.05 100.46,27.43 100.46,25.36 C100.46,23.29 98.96,21.7 96.86,21.7 Z M62.08,17.29 L59.23,24.49 L64.93,24.49 L62.08,17.29 Z M130.8,21.04 C129.45,21.04 128.04,21.91 127.74,23.65 L127.74,23.65 L133.89,23.65 C133.59,21.88 132.15,21.04 130.8,21.04 Z M194.83,21.04 C193.48,21.04 192.07,21.91 191.77,23.65 L191.77,23.65 L197.92,23.65 C197.62,21.88 196.18,21.04 194.83,21.04 Z" id="Combined-Shape"></path>
            </g>
        </g>
    </g>
</svg>