<?xml version="1.0" encoding="UTF-8"?>
<svg width="214px" height="42px" viewBox="0 0 214 42" version="1.1" xmlns="http://www.w3.org/2000/svg" xmlns:xlink="http://www.w3.org/1999/xlink">
    <title>AV-Logo</title>
    <defs>
        <polygon id="path-1" points="0 0.101790667 21.8859979 0.101790667 21.8859979 27 0 27"></polygon>
        <polygon id="path-3" points="0.0955367089 0.0664544313 17.8343093 0.0664544313 17.8343093 39 0.0955367089 39"></polygon>
    </defs>
    <g id="🎨-Color-Palette" stroke="none" stroke-width="1" fill="none" fill-rule="evenodd">
        <g id="Color-&amp;-Typography" transform="translate(-911.000000, -141.000000)">
            <g id="AV-Logo" transform="translate(911.000000, 141.000000)">
                <g id="Group-15">
                    <g id="Fill-4-Clipped" transform="translate(0.000000, 14.000000)">
                        <mask id="mask-2" fill="white">
                            <use xlink:href="#path-1"></use>
                        </mask>
                        <g id="path-1"></g>
                        <path d="M-2.34042553e-05,9.87201466 C0.157253191,9.63576466 0.394806383,9.4195319 0.459402128,9.16047155 C1.16738085,6.31499741 2.23859362,3.65852328 4.38663617,1.55275603 C6.4064234,-0.42755431 9.07263617,-0.298373276 11.1764447,1.43940259 C13.5351255,3.38735948 14.9889979,5.9837819 16.2497851,8.65748017 C17.464466,11.2331871 18.4872319,13.9092129 19.4219979,16.6001353 C20.0845723,18.5075922 20.4889979,20.5062905 20.9552106,22.4765922 C21.309317,23.9741612 21.578934,25.4912819 21.8859979,27.0000233 L20.4889979,27.0000233 C20.2565936,26.850825 20.0424447,26.6490233 19.7885085,26.5608078 C17.9554872,25.9249112 16.0040404,25.5254974 14.2959979,24.6528853 C8.58395532,21.735256 4.97735957,17.1301267 3.6927,10.8125922 C3.50546596,9.89179914 2.90023191,9.71816121 2.06961489,9.91251466 C1.3843383,10.0728853 0.690168085,10.1957819 -2.34042553e-05,10.3349716 L-2.34042553e-05,9.87201466 Z" id="Fill-4" fill="#222223" fill-rule="nonzero" mask="url(#mask-2)"></path>
                    </g>
                    <g id="Fill-7-Clipped" transform="translate(26.000000, 2.000000)">
                        <mask id="mask-4" fill="white">
                            <use xlink:href="#path-3"></use>
                        </mask>
                        <g id="path-3"></g>
                        <path d="M0.0955367089,39.0000231 C0.848574684,37.4206385 1.5662962,35.8227923 2.36057468,34.2651 C4.60373924,29.8671 6.92528354,25.5090231 9.12584051,21.0893308 C10.8321949,17.6621769 12.5237392,14.2177154 13.9988278,10.6853308 C15.2879924,7.59717692 14.8803722,3.91479231 12.3157139,1.73471538 C12.0666759,1.5231 11.7994101,1.33317692 11.4423722,1.05717692 C11.5854608,0.892176923 11.7123722,0.601407692 11.8960177,0.558253846 C12.7932835,0.347561538 13.7012582,0.148176923 14.6158405,0.0678692308 C14.8938152,0.0434076923 15.3470051,0.340638462 15.4800684,0.611330769 C16.6810557,3.04963846 17.3313342,5.59502308 16.5413848,8.3091 C16.1087013,9.79525385 16.3750557,11.1964846 16.9326,12.5520231 C17.8802203,14.8576385 17.8629038,17.2689462 17.8182456,19.6890231 C17.7093342,25.5992538 15.1398911,30.3549462 10.8809544,34.1859462 C8.8084481,36.0503308 6.38049873,37.4411769 3.61761266,38.1180231 C2.72763797,38.3358692 1.87320759,38.7018692 1.0021443,39.0000231 L0.0955367089,39.0000231 Z" id="Fill-7" fill="#222223" fill-rule="nonzero" mask="url(#mask-4)"></path>
                    </g>
                    <path d="M6,10.1652881 C9.04710112,5.38248699 13.1020751,1.93991617 18.7940205,0.627484628 C24.5171978,-0.692014394 29.9271173,0.0104933874 35.1517592,3.29734401 C34.3390267,3.72916721 33.5969768,4.12329716 32.8112493,4.54051422 C35.7315444,6.94746325 36.5712819,10.4793199 35.6355006,14.1223717 C35.2581353,15.5919369 35.030589,17.1072052 34.5621113,18.5449668 C33.7958743,20.8958471 33.0026324,23.2507324 32.013076,25.5125624 C30.6299513,28.6745542 29.0599052,31.7547987 27.5567845,34.8635488 C27.3898233,35.2091487 27.1376202,35.5130504 26.8170829,36 C26.0853653,33.089375 25.5276537,30.382058 24.7182088,27.75319 C23.1286722,22.5908651 21.4257146,17.449507 18.1313418,13.0603646 C16.3692081,10.713018 14.0822385,8.89973756 11.0689523,8.84484677 C9.44982757,8.81539893 7.81496952,9.66208336 6,10.1652881" id="Fill-13" fill="#222223" fill-rule="nonzero"></path>
                </g>
                <path d="M56.23,31.87 L58,27.67 L66.07,27.67 L67.84,31.87 L72.04,31.87 L63.67,11.86 L60.61,11.86 L52,31.87 L56.23,31.87 Z M64.93,24.49 L59.23,24.49 L62.08,17.29 L64.93,24.49 Z M79.41,32.29 C80.34,32.29 82.08,32.08 83.4,30.19 L83.4,31.87 L87.06,31.87 L87.06,10 L83.4,10 L83.4,20.56 C82.17,18.64 80.22,18.46 79.23,18.46 C75.39,18.46 72.78,21.52 72.78,25.36 C72.78,29.17 75.42,32.29 79.41,32.29 Z M80.16,29.05 C78.06,29.05 76.56,27.43 76.56,25.36 C76.56,23.29 78.06,21.7 80.16,21.7 C82.26,21.7 83.76,23.29 83.76,25.36 C83.76,27.43 82.26,29.05 80.16,29.05 Z M96.11,32.29 C97.04,32.29 98.78,32.08 100.1,30.19 L100.1,31.87 L103.76,31.87 L103.76,10 L100.1,10 L100.1,20.56 C98.87,18.64 96.92,18.46 95.93,18.46 C92.09,18.46 89.48,21.52 89.48,25.36 C89.48,29.17 92.12,32.29 96.11,32.29 Z M96.86,29.05 C94.76,29.05 93.26,27.43 93.26,25.36 C93.26,23.29 94.76,21.7 96.86,21.7 C98.96,21.7 100.46,23.29 100.46,25.36 C100.46,27.43 98.96,29.05 96.86,29.05 Z M115.9,31.87 L124.36,11.86 L120.1,11.86 L114.76,25.3 L109.42,11.86 L105.16,11.86 L113.56,31.87 L115.9,31.87 Z M130.86,32.29 C135.39,32.29 136.86,29.2 137.25,28.24 L133.89,27.7 C133.29,28.75 132.24,29.41 130.86,29.41 C129.45,29.41 128.64,28.72 128.25,28.18 C127.83,27.61 127.62,26.77 127.62,25.99 L137.34,25.99 L137.34,25.69 C137.34,24.28 137.16,22.24 135.78,20.59 C134.88,19.51 133.35,18.46 130.71,18.46 C129.15,18.46 127.35,18.79 125.82,20.29 C124.89,21.22 123.84,22.81 123.84,25.39 C123.84,27.43 124.44,29.11 125.88,30.46 C127.17,31.69 128.76,32.29 130.86,32.29 Z M133.89,23.65 L127.74,23.65 C128.04,21.91 129.45,21.04 130.8,21.04 C132.15,21.04 133.59,21.88 133.89,23.65 Z M143.42,31.87 L143.42,25.24 C143.42,24.49 143.45,23.56 143.99,22.72 C144.53,21.91 145.28,21.58 146.24,21.58 C146.6,21.58 147.38,21.64 147.95,22.24 C148.61,22.93 148.64,24.07 148.64,24.79 L148.64,31.87 L152.3,31.87 L152.3,23.71 C152.3,22.45 152.18,21.16 151.28,20.05 C150.26,18.79 148.58,18.46 147.44,18.46 C145.34,18.46 144.11,19.6 143.42,20.56 L143.42,18.88 L139.76,18.88 L139.76,31.87 L143.42,31.87 Z M159.04,31.87 L159.04,22 L161.56,22 L161.56,18.88 L159.04,18.88 L159.04,14.44 L155.38,14.44 L155.38,18.88 L153.94,18.88 L153.94,22 L155.38,22 L155.38,31.87 L159.04,31.87 Z M169.38,32.29 C170.97,32.29 172.89,31.87 174.09,30.82 C175.53,29.56 175.68,28 175.68,26.83 L175.68,18.88 L172.02,18.88 L172.02,26.23 C172.02,26.92 171.96,27.85 171.24,28.51 C170.79,28.9 170.07,29.17 169.38,29.17 C168.69,29.17 167.97,28.9 167.52,28.51 C166.8,27.85 166.74,26.92 166.74,26.23 L166.74,18.88 L163.08,18.88 L163.08,26.83 C163.08,28 163.23,29.56 164.67,30.82 C165.87,31.87 167.79,32.29 169.38,32.29 Z M182.42,31.87 L182.42,25.63 C182.42,24.73 182.45,23.62 183.14,22.75 C183.86,21.85 184.88,21.7 185.57,21.7 C186.32,21.7 186.8,21.85 187.28,22.18 L187.76,18.76 C187.34,18.61 186.83,18.46 186.2,18.46 C185.33,18.46 184.61,18.67 184.04,19.03 C183.77,19.18 182.99,19.72 182.42,20.83 L182.42,18.88 L178.76,18.88 L178.76,31.87 L182.42,31.87 Z M194.89,32.29 C199.42,32.29 200.89,29.2 201.28,28.24 L197.92,27.7 C197.32,28.75 196.27,29.41 194.89,29.41 C193.48,29.41 192.67,28.72 192.28,28.18 C191.86,27.61 191.65,26.77 191.65,25.99 L201.37,25.99 L201.37,25.69 C201.37,24.28 201.19,22.24 199.81,20.59 C198.91,19.51 197.38,18.46 194.74,18.46 C193.18,18.46 191.38,18.79 189.85,20.29 C188.92,21.22 187.87,22.81 187.87,25.39 C187.87,27.43 188.47,29.11 189.91,30.46 C191.2,31.69 192.79,32.29 194.89,32.29 Z M197.92,23.65 L191.77,23.65 C192.07,21.91 193.48,21.04 194.83,21.04 C196.18,21.04 197.62,21.88 197.92,23.65 Z M207.99,32.29 C209.58,32.29 210.84,31.87 211.89,30.91 C212.94,29.95 213.33,28.78 213.33,27.61 C213.33,26.77 213.06,25.99 212.67,25.45 C211.92,24.43 210.39,23.92 209.37,23.59 L208.5,23.32 C207.48,22.99 207.33,22.48 207.33,22.15 C207.33,21.52 207.87,21.1 208.74,21.1 C209.13,21.1 210,21.16 210.87,21.97 L212.67,19.84 C211.02,18.58 209.49,18.46 208.53,18.46 C207.48,18.46 206.16,18.58 205.14,19.39 C204.39,20.02 203.79,21.07 203.79,22.33 C203.79,23.38 204.18,24.19 204.78,24.82 C205.56,25.63 206.64,26.05 207.57,26.38 L208.41,26.68 C208.89,26.86 209.55,27.19 209.55,28 C209.55,28.9 208.77,29.41 207.75,29.41 C206.67,29.41 205.59,28.75 204.87,27.91 L202.95,30.13 C203.76,31 205.29,32.29 207.99,32.29 Z" id="AddVentures" fill="#09090B" fill-rule="nonzero"></path>
            </g>
        </g>
    </g>
</svg>