<?xml version="1.0" encoding="UTF-8"?>
<svg width="46px" height="56px" viewBox="0 0 46 56" version="1.1" xmlns="http://www.w3.org/2000/svg" xmlns:xlink="http://www.w3.org/1999/xlink">
    <title>Icon_globus</title>
    <defs>
        <linearGradient x1="50%" y1="0%" x2="50%" y2="100%" id="linearGradient-1">
            <stop stop-color="#FFFFFF" stop-opacity="0.6" offset="0%"></stop>
            <stop stop-color="#FFFFFF" stop-opacity="0.1" offset="100%"></stop>
        </linearGradient>
    </defs>
    <g id="Landing-Page" stroke="none" stroke-width="1" fill="none" fill-rule="evenodd">
        <g id="Artboard" transform="translate(-999.000000, -2524.000000)">
            <g id="Icon_globus" transform="translate(999.000000, 2524.000000)">
                <path d="M42.9998,12 C44.6567,12 45.9998,13.3431 45.9998,15 C45.9998,19.4028 45.7667,23.3795 44.4387,27.274 C43.0924,31.2217 40.7075,34.8487 36.7781,38.7781 C32.8487,42.7076 27.984,44.6842 22.9998,45.4085 L22.9998,50 L23.9998,50 C25.6567,50 26.9998,51.3431 26.9998,53 C26.9998,54.6568 25.6567,56 23.9998,56 L15.9998,56 C14.343,56 12.9998,54.6568 12.9998,53 C12.9998,51.3431 14.343,50 15.9998,50 L16.9998,50 L16.9998,45.7208 C13.114,45.5894 9.3563,44.859 6.1215,43.8686 C4.5373,43.3835 3.6462,41.706 4.1313,40.1217 C4.6163,38.5375 6.2938,37.6464 7.8781,38.1314 C16.1953,40.678 26.3476,40.7234 32.5355,34.5355 C35.9952,31.0758 37.7818,28.2053 38.7598,25.3374 C39.756,22.4161 39.9998,19.259 39.9998,15 C39.9998,13.3431 41.343,12 42.9998,12 Z" id="Path" fill-opacity="0.1" fill="#030B26"></path>
                <path d="M38.9998,8 C40.6567,8 41.9998,9.3431 41.9998,11 C41.9998,15.4028 41.7667,19.3795 40.4387,23.274 C39.0924,27.2217 36.7075,30.8487 32.7781,34.7781 C28.8487,38.7076 23.984,40.6842 18.9998,41.4085 L18.9998,46 L19.9998,46 C21.6567,46 22.9998,47.3431 22.9998,49 C22.9998,50.6568 21.6567,52 19.9998,52 L11.9998,52 C10.343,52 8.9998,50.6568 8.9998,49 C8.9998,47.3431 10.343,46 11.9998,46 L12.9998,46 L12.9998,41.7208 C9.114,41.5894 5.3563,40.859 2.1215,39.8686 C0.53728,39.3835 -0.3538,37.706 0.13126,36.1217 C0.61632,34.5375 2.2938,33.6464 3.8781,34.1314 C12.1953,36.678 22.3476,36.7234 28.5355,30.5355 C31.9952,27.0758 33.7818,24.2053 34.7598,21.3374 C35.756,18.4161 35.9998,15.259 35.9998,11 C35.9998,9.3431 37.343,8 38.9998,8 Z" id="Path" fill="#5754E5"></path>
                <path d="M16,32 C24.8366,32 32,24.8366 32,16 C32,7.1634 24.8366,0 16,0 C7.1634,0 0,7.1634 0,16 C0,24.8366 7.1634,32 16,32 Z M10,13 C11.6569,13 13,11.6569 13,10 C13,8.3431 11.6569,7 10,7 C8.3431,7 7,8.3431 7,10 C7,11.6569 8.3431,13 10,13 Z" id="Shape" fill="#5754E5"></path>
                <path d="M28,16 C28,22.6274 22.6274,28 16,28 C9.3726,28 4,22.6274 4,16 C4,9.3726 9.3726,4 16,4 C22.6274,4 28,9.3726 28,16 Z" id="Path" fill="url(#linearGradient-1)" fill-rule="nonzero"></path>
            </g>
        </g>
    </g>
</svg>