<?xml version="1.0" encoding="UTF-8"?>
<svg width="56px" height="56px" viewBox="0 0 56 56" version="1.1" xmlns="http://www.w3.org/2000/svg" xmlns:xlink="http://www.w3.org/1999/xlink">
    <title>Icon_crown</title>
    <defs>
        <linearGradient x1="50%" y1="0%" x2="50%" y2="100%" id="linearGradient-1">
            <stop stop-color="#FFFFFF" stop-opacity="0.6" offset="0%"></stop>
            <stop stop-color="#FFFFFF" stop-opacity="0.1" offset="100%"></stop>
        </linearGradient>
    </defs>
    <g id="Landing-Page" stroke="none" stroke-width="1" fill="none" fill-rule="evenodd">
        <g id="Artboard" transform="translate(-628.000000, -2281.000000)">
            <g id="Icon_crown" transform="translate(628.000000, 2281.000000)">
                <path d="M4,48 L4,40 L56,40 L56,48 C56,52.4183 52.4183,56 48,56 L12,56 C7.5817,56 4,52.4183 4,48 Z" id="Path" fill-opacity="0.1" fill="#030B26" fill-rule="nonzero"></path>
                <path d="M0,44 L0,36 L52,36 L52,44 C52,48.4183 48.4183,52 44,52 L8,52 C3.58172,52 0,48.4183 0,44 Z" id="Path" fill="#5754E5" fill-rule="nonzero"></path>
                <path d="M13,12 L0,0 L0,32 L52,32 L52,0 L39,12 L26,0 L13,12 Z M30,24 C30,26.2091 28.2091,28 26,28 C23.7909,28 22,26.2091 22,24 C22,21.7909 23.7909,20 26,20 C28.2091,20 30,21.7909 30,24 Z M10,24 C10,25.1046 9.1046,26 8,26 C6.8954,26 6,25.1046 6,24 C6,22.8954 6.8954,22 8,22 C9.1046,22 10,22.8954 10,24 Z M46,24 C46,25.1046 45.1046,26 44,26 C42.8954,26 42,25.1046 42,24 C42,22.8954 42.8954,22 44,22 C45.1046,22 46,22.8954 46,24 Z" id="Shape" fill="#5754E5"></path>
                <path d="M13,16 L4,8 L4,36 C4,40.4183 7.5817,44 12,44 L40,44 C44.4183,44 48,40.4183 48,36 L48,8 L39,16 L26,4 L13,16 Z" id="Path" fill="url(#linearGradient-1)" fill-rule="nonzero"></path>
            </g>
        </g>
    </g>
</svg>