<?xml version="1.0" encoding="UTF-8"?>
<svg width="56px" height="54px" viewBox="0 0 56 54" version="1.1" xmlns="http://www.w3.org/2000/svg" xmlns:xlink="http://www.w3.org/1999/xlink">
    <title>Icon_cash</title>
    <defs>
        <linearGradient x1="59.0909091%" y1="-4.05855808e-06%" x2="59.0909091%" y2="97.3684209%" id="linearGradient-1">
            <stop stop-color="#FFFFFF" stop-opacity="0.6" offset="0%"></stop>
            <stop stop-color="#FFFFFF" stop-opacity="0.1" offset="100%"></stop>
        </linearGradient>
    </defs>
    <g id="Landing-Page" stroke="none" stroke-width="1" fill="none" fill-rule="evenodd">
        <g id="Artboard" transform="translate(-248.000000, -2281.000000)">
            <g id="Icon_cash" transform="translate(248.000000, 2281.000000)">
                <path d="M4.25708,49.7429 C5.0038,52.2066 7.2925,54 10,54 L50,54 C53.3137,54 56,51.3137 56,48 L56,28 C56,25.2925 54.2066,23.0038 51.7429,22.2571 C51.9101,22.8087 52,23.3938 52,24 L52,44 C52,47.3137 49.3137,50 46,50 L6,50 C5.39384,50 4.80866,49.9101 4.25708,49.7429 Z" id="Path" fill-opacity="0.1" fill="#030B26" fill-rule="nonzero"></path>
                <path d="M0,44 L0,24 C0,20.6863 2.68629,18 6,18 L46,18 C49.3137,18 52,20.6863 52,24 L52,44 C52,47.3137 49.3137,50 46,50 L6,50 C2.68629,50 0,47.3137 0,44 Z M8,37 C9.6569,37 11,35.6569 11,34 C11,32.3431 9.6569,31 8,31 C6.3431,31 5,32.3431 5,34 C5,35.6569 6.3431,37 8,37 Z M44,37 C45.6569,37 47,35.6569 47,34 C47,32.3431 45.6569,31 44,31 C42.3431,31 41,32.3431 41,34 C41,35.6569 42.3431,37 44,37 Z M26,44 C31.5228,44 36,39.5228 36,34 C36,28.4772 31.5228,24 26,24 C20.4772,24 16,28.4772 16,34 C16,39.5228 20.4772,44 26,44 Z" id="Shape" fill="#5754E5"></path>
                <path d="M48,5.6725 L48,14.0000017 L4,14.0000017 L4,12.7492 C4,9.095 6.765,5.9636 10.5689,5.31 L40.9267,0.09311 C44.6097,-0.53981 48,2.13444 48,5.6725 Z" id="Path" fill="#5754E5" fill-rule="nonzero"></path>
                <path d="M27.9127,33.3113 C28.5769,32.7611 29,31.9299 29,31 C29,29.3431 27.6569,28 26,28 C24.3431,28 23,29.3431 23,31 C23,31.9299 23.4231,32.761 24.0873,33.3113 C22.5128,33.8404 21.2301,35.0049 20.5439,36.5 C21.492,38.5655 23.5784,40 25.9999,40 C28.4214,40 30.5079,38.5655 31.4559,36.5 C30.7697,35.0049 29.4871,33.8405 27.9127,33.3113 Z" id="Path" fill="#5754E5" fill-rule="nonzero"></path>
                <path d="M44,17.5186 C46.3304,18.3361 48,20.5419 48,23.1348 L48,36.0449 C48,39.3338 45.3137,42.0000015 42,42.0000015 L10,42.0000015 C6.6863,42.0000015 4,39.3338 4,36.0449 L4,23.1348 C4,20.5419 5.66962,18.3361 8,17.5186 L8,12.6027 C8,10.662 9.4137,9.0058 11.3424,8.6867 L39.3424,4.055 C41.7805,3.65169 44,5.5178 44,7.971 L44,17.5186 Z" id="Path" fill="url(#linearGradient-1)" fill-rule="nonzero"></path>
            </g>
        </g>
    </g>
</svg>