<?xml version="1.0" encoding="UTF-8"?>
<svg width="56px" height="56px" viewBox="0 0 56 56" version="1.1" xmlns="http://www.w3.org/2000/svg" xmlns:xlink="http://www.w3.org/1999/xlink">
    <title>Icon_flower</title>
    <defs>
        <linearGradient x1="50%" y1="0%" x2="50%" y2="100%" id="linearGradient-1">
            <stop stop-color="#FFFFFF" stop-opacity="0.6" offset="0%"></stop>
            <stop stop-color="#FFFFFF" stop-opacity="0.1" offset="100%"></stop>
        </linearGradient>
    </defs>
    <g id="Page-2" stroke="none" stroke-width="1" fill="none" fill-rule="evenodd">
        <g id="Icon_flower">
            <path d="M10.707,51.2932 C11.9623,54.0689 14.7556,56.0002 18,56.0002 L46,56.0002 C50.4183,56.0002 54,52.4185 54,48.0002 L54,32.0002 L50,32.0002 L50,44.0002 C50,48.4185 46.4183,52.0002 42,52.0002 L14,52.0002 C12.8261,52.0002 11.7113,51.7474 10.707,51.2932 Z" id="Path" fill-opacity="0.1" fill="#030B26" fill-rule="nonzero"></path>
            <path d="M6,28.0002 L6,44.0002 C6,48.4185 9.5817,52.0002 14,52.0002 L42,52.0002 C46.4183,52.0002 50,48.4185 50,44.0002 L50,28.0002 L6,28.0002 Z M26,38 C26,36.8954 26.8954,36 28,36 C29.1046,36 30,36.8954 30,38 C30,39.1046 29.1046,40 28,40 C26.8954,40 26,39.1046 26,38 Z M18,42.0002 C18,40.8957 18.8954,40.0002 20,40.0002 C21.1046,40.0002 22,40.8957 22,42.0002 C22,43.1048 21.1046,44.0002 20,44.0002 C18.8954,44.0002 18,43.1048 18,42.0002 Z M10,38.0002 C10,36.8957 10.8954,36.0002 12,36.0002 C13.1046,36.0002 14,36.8957 14,38.0002 C14,39.1048 13.1046,40.0002 12,40.0002 C10.8954,40.0002 10,39.1048 10,38.0002 Z M42,38.0002 C42,36.8957 42.8954,36.0002 44,36.0002 C45.1046,36.0002 46,36.8957 46,38.0002 C46,39.1048 45.1046,40.0002 44,40.0002 C42.8954,40.0002 42,39.1048 42,38.0002 Z M34,42.0002 C34,40.8957 34.8954,40.0002 36,40.0002 C37.1046,40.0002 38,40.8957 38,42.0002 C38,43.1048 37.1046,44.0002 36,44.0002 C34.8954,44.0002 34,43.1048 34,42.0002 Z" id="Shape" fill="#F35421"></path>
            <path d="M28.325,20.7275 C31.5091,21.7734 36.3171,19.7686 40.2275,15.4467 C45.0574,10.1084 43.8713,0.14245 43.8713,0.14245 C43.8713,0.14245 34.8545,-1.16842 30.0247,4.16987 C28.318,6.0562 27.0107,8.1315 26.1579,10.1641 C25.6424,9.5748 25.0803,8.9901 24.4751,8.4185 C19.7384,3.94495 11.999966,4.00028 11.999966,4.00028 C11.999966,4.00028 11.9415,11.3087 16.6782,15.7823 C20.8945,19.7643 25.7831,21.7692 28.325,20.7275 Z" id="Path" fill="#F35421" fill-rule="nonzero"></path>
            <path d="M0,21.0002 C0,19.3434 1.34315,18.0002 3,18.0002 L53,18.0002 C54.6569,18.0002 56,19.3434 56,21.0002 C56,22.6571 54.6569,24.0002 53,24.0002 L3,24.0002 C1.34314,24.0002 0,22.6571 0,21.0002 Z" id="Path" fill="#F35421" fill-rule="nonzero"></path>
            <path d="M10,26 C10,23.7909 11.7909,22 14,22 L42,22 C44.2091,22 46,23.7909 46,26 L46,38 C46,41.3137 43.3137,44 40,44 L16,44 C12.6863,44 10,41.3137 10,38 L10,26 Z" id="Path" fill="url(#linearGradient-1)" fill-rule="nonzero"></path>
        </g>
    </g>
</svg>